<svg xmlns="http://www.w3.org/2000/svg" xmlns:xlink="http://www.w3.org/1999/xlink" viewBox="0 0 264.5833 264.5833"
	width="1000" height="1000">
	<g transform="scale(1.3422818792)">
		<path
			d="m98.39,0c-26.72,0 -30.07,0.12 -40.57,0.6c-10.47,0.48 -17.62,2.13 -23.87,4.56c-6.47,2.51 -11.96,5.87 -17.43,11.34c-5.47,5.46 -8.83,10.95 -11.35,17.41c-2.44,6.25 -4.1,13.4 -4.57,23.86c-0.47,10.48 -0.6,13.84 -0.6,40.53c0,26.7 0.12,30.04 0.6,40.53c0.48,10.46 2.14,17.6 4.57,23.85c2.51,6.47 5.87,11.95 11.34,17.42c5.47,5.47 10.96,8.83 17.42,11.34c6.26,2.44 13.41,4.09 23.88,4.57c10.5,0.48 13.85,0.6 40.56,0.6c26.72,0 30.06,-0.12 40.56,-0.6c10.47,-0.48 17.63,-2.13 23.89,-4.57c6.46,-2.51 11.94,-5.87 17.41,-11.34c5.47,-5.47 8.83,-10.95 11.35,-17.41c2.42,-6.26 4.08,-13.4 4.57,-23.86c0.48,-10.49 0.6,-13.83 0.6,-40.53c0,-26.69 -0.12,-30.04 -0.6,-40.53c-0.49,-10.46 -2.15,-17.61 -4.57,-23.86c-2.52,-6.46 -5.88,-11.95 -11.35,-17.41c-5.47,-5.47 -10.94,-8.83 -17.42,-11.34c-6.27,-2.43 -13.42,-4.08 -23.9,-4.56c-10.49,-0.48 -13.83,-0.6 -40.56,-0.6l0.04,0zm-8.83,17.72c2.62,-0.01 5.54,0 8.83,0c26.26,0 29.37,0.09 39.75,0.56c9.59,0.44 14.79,2.04 18.26,3.39c4.59,1.78 7.87,3.91 11.31,7.35c3.44,3.44 5.57,6.72 7.36,11.3c1.34,3.47 2.95,8.67 3.39,18.25c0.47,10.36 0.57,13.48 0.57,39.71c0,26.24 -0.1,29.35 -0.57,39.71c-0.44,9.59 -2.05,14.79 -3.39,18.25c-1.79,4.59 -3.92,7.85 -7.36,11.29c-3.45,3.44 -6.72,5.57 -11.31,7.35c-3.46,1.35 -8.67,2.95 -18.26,3.39c-10.37,0.47 -13.49,0.57 -39.75,0.57c-26.27,0 -29.39,-0.1 -39.76,-0.57c-9.59,-0.44 -14.79,-2.04 -18.26,-3.39c-4.59,-1.78 -7.87,-3.91 -11.32,-7.35c-3.44,-3.44 -5.57,-6.71 -7.36,-11.3c-1.34,-3.46 -2.95,-8.66 -3.39,-18.25c-0.47,-10.36 -0.56,-13.47 -0.56,-39.72c0,-26.25 0.09,-29.35 0.56,-39.71c0.44,-9.59 2.05,-14.79 3.39,-18.25c1.79,-4.59 3.92,-7.87 7.36,-11.31c3.45,-3.44 6.73,-5.57 11.32,-7.35c3.46,-1.36 8.67,-2.95 18.26,-3.39c9.08,-0.41 12.6,-0.54 30.93,-0.56l0,0.03zm61.34,16.32c-6.52,0 -11.81,5.28 -11.81,11.79c0,6.51 5.29,11.8 11.81,11.8c6.51,0 11.8,-5.29 11.8,-11.8c0,-6.51 -5.29,-11.79 -11.8,-11.79zm-52.51,13.78c-27.9,0 -50.52,22.61 -50.52,50.48c0,27.88 22.62,50.48 50.52,50.48s50.51,-22.6 50.51,-50.48c0,-27.87 -22.62,-50.48 -50.52,-50.48l0.01,0zm0,17.72c18.1,0 32.79,14.67 32.79,32.76c0,18.1 -14.69,32.77 -32.79,32.77c-18.12,0 -32.8,-14.67 -32.8,-32.77c0,-18.09 14.68,-32.76 32.8,-32.76z"
			fill="#FFFFFF" />
	</g>
</svg>