<?xml version="1.0" standalone="no"?>

<!DOCTYPE svg PUBLIC "-//W3C//DTD SVG 20010904//EN" "http://www.w3.org/TR/2001/REC-SVG-20010904/DTD/svg10.dtd">

<svg version="1.1" xmlns="http://www.w3.org/2000/svg" viewBox="0 0 1000 1000" preserveAspectRatio="xMidYMid meet">

	<defs>

		<style>
			g {
				fill: #000000;
			}

			@media (prefers-color-scheme: dark) {
				g {
					fill: #FFFFFF;
				}
			}
		</style>

	</defs>

	<g>

		<path
			d="M475.9 120.5 c-36.4 6.9 -64.5 32.3 -75.6 68.2 l-2.7 8.8 -0.3 41.5 -0.4 41.5 94.6 169.5 c70.9 127.3 94.9 169.5 96.2 169.4 1 0 15.2 -7.5 31.7 -16.7 16.4 -9.2 30.3 -16.7 30.9 -16.7 0.6 0 3.2 2.1 5.8 4.6 l4.6 4.5 -1.3 7.4 c-7.5 43.5 3.8 79.8 32.7 104.3 14.3 12.2 25.6 17.5 55.2 25.6 22.8 6.3 36.1 13.9 51.9 29.7 l9.7 9.7 0.7 -7.6 c1.2 -13 -0.2 -42.5 -2.6 -53.7 -10.3 -48.9 -40.2 -88.4 -82.5 -109.3 -16.2 -8.1 -35.6 -13.2 -49.7 -13.2 l-7.3 0 -11.1 -11.3 -11.1 -11.2 -28.1 -50.5 c-15.4 -27.8 -45.2 -81.3 -66.1 -118.8 -21 -37.6 -38.1 -68.6 -38.1 -68.8 0 -0.2 17.1 -0.4 38 -0.4 l38 0 0 -57.3 c0 -56.6 -0.5 -67.5 -3.5 -79.1 -8.6 -33.1 -36.3 -60.4 -69.6 -68.6 -11.1 -2.8 -29.8 -3.5 -40 -1.5z" />
		<path
			d="M190.4 235.8 c-1.2 13 0.2 42.5 2.6 53.7 9.2 43.3 34.2 80.1 69.5 102.3 19.3 12.1 44.6 20.2 62.9 20.2 l7.1 0 11.1 11.2 11.1 11.3 15.6 28 c8.5 15.4 38.3 68.9 66.1 118.8 27.8 49.9 50.6 91 50.6 91.2 0 0.3 -17.1 0.5 -38 0.5 l-38 0 0 57.3 c0 32.5 0.4 60.7 1 65.3 2.8 22.5 11.9 41.3 27.5 56.9 12.4 12.5 28.1 21.4 45.1 25.7 12.3 3.1 34.3 3.1 45.6 0 34.5 -9.4 59 -33 69.5 -66.9 l2.7 -8.8 0.4 -40.7 0.3 -40.6 -16.5 -30.4 c-30.1 -55.5 -172.5 -310.3 -173.6 -310.6 -0.6 -0.2 -14.8 7.3 -31.6 16.7 -16.9 9.4 -31.1 17.1 -31.7 17.1 -0.6 0 -3.2 -2.1 -5.8 -4.6 l-4.6 -4.5 1.3 -7.3 c3.2 -18.7 2.6 -39.5 -1.6 -56.3 -5.6 -21.8 -20.4 -41.8 -41.6 -56.2 -10.4 -7 -18.9 -10.3 -44.7 -17.5 -22.9 -6.4 -36.1 -13.9 -51.9 -29.7 l-9.7 -9.7 -0.7 7.6z" />

	</g>

</svg>